<svg xmlns="http://www.w3.org/2000/svg" version="1.1" xmlns:xlink="http://www.w3.org/1999/xlink" width="512" height="512" x="0" y="0" viewBox="0 0 7111 7111" style="enable-background:new 0 0 512 512" xml:space="preserve" fill-rule="evenodd" class=""><g><path d="M5395 7114c-17 0-34-5-51-11l-778-455-783-455c-29-17-52-52-52-86V4298c0-34 17-69 52-86l783-455 783-455c29-17 69-17 104 0l783 455 783 449c29 18 52 52 52 87v1808c0 34-17 69-52 86l-783 455-789 461c-17 6-34 11-52 11zM3933 6049l731 426 731 421 732-421 731-426V4356l-725-420-732-427-737 427-731 420z" fill="#5DD3B6" opacity="1" data-original="#000000" class=""></path><path d="M5395 5295c-17 0-34-6-51-12l-1555-904c-46-29-64-92-35-138s92-64 138-35l1509 870 1509-870c46-29 109-11 138 35s12 109-34 138l-1567 904c-17 6-34 12-52 12z" fill="#5DD3B6" opacity="1" data-original="#000000" class=""></path><path d="M5395 7114c-57 0-103-46-103-103V5203c0-58 46-104 103-104 58 0 104 46 104 104v1814c0 51-46 97-104 97zM4820 4961c-35 0-70-18-87-46-29-46-17-110 35-139l1353-852-155-86-1342 835c6 23 0 46-12 69-29 46-92 63-138 34l-63-34c-29-17-46-52-46-87 0-34 17-69 46-86l1497-939c29-17 69-23 104 0l351 202c29 17 52 52 52 86 0 35-18 69-46 87l-1498 938c-17 12-34 18-51 18z" fill="#5DD3B6" opacity="1" data-original="#000000" class=""></path><path d="M4814 5657c-17 0-35-5-52-11l-357-207c-35-18-52-52-52-87v-702c0-58 46-104 104-104 57 0 103 46 103 104v639l18 6 138 80 6-524c0-57 46-98 103-98 58 0 98 46 98 104l-11 703c0 34-18 69-52 86-12 6-29 11-46 11zM3455 6291c-1210 0-2286-766-2684-1912-17-52 12-109 64-127 51-17 109 12 126 64 369 1065 1371 1779 2494 1779 57 0 103 46 103 104 0 57-51 92-103 92zm2591-3640c-40 0-80-28-98-69C5580 1517 4578 803 3455 803c-58 0-104-46-104-104 0-57 46-103 104-103 1209 0 2286 765 2683 1911 18 52-11 110-63 127-6 17-17 17-29 17zM1756 3423C812 3423 40 2657 40 1713 46 768 812 2 1756 2s1710 766 1710 1717c0 938-766 1704-1710 1704zm0-3219C927 204 247 884 247 1713s680 1509 1515 1509c829 0 1509-674 1509-1509-6-829-680-1509-1515-1509z" fill="#5DD3B6" opacity="1" data-original="#000000" class=""></path><path d="M1756 3423c-472 0-847-749-847-1710C909 751 1284-3 1756-3s841 754 841 1716c5 961-369 1710-841 1710zm0-3219c-311 0-645 605-645 1509s334 1509 645 1509 639-605 639-1509c6-904-328-1509-639-1509z" fill="#5DD3B6" opacity="1" data-original="#000000" class=""></path><path d="M1756 3423c-58 0-104-46-104-104V100c0-57 46-103 104-103s104 52 104 103v3219c0 58-46 104-104 104z" fill="#5DD3B6" opacity="1" data-original="#000000" class=""></path><path d="M1756 2559c-962 0-1716-368-1716-840 0-473 754-847 1716-847 956 0 1710 374 1710 847 0 466-748 840-1710 840zm0-1491c-887 0-1509 340-1509 645 0 311 605 639 1515 639 904 0 1509-334 1509-639-6-305-622-645-1515-645z" fill="#5DD3B6" opacity="1" data-original="#000000" class=""></path><path d="M3368 1816H144c-58 0-104-46-104-103 0-58 46-104 104-104h3219c57 0 103 46 103 104 0 57-46 103-98 103zM6046 2651h-17l-1451-270c-58-12-92-64-81-115 12-58 63-93 115-81l1348 253 253-1347c12-58 64-92 115-81 58 12 92 64 81 115l-271 1446c-5 46-46 80-92 80zM541 5876h-23c-52-11-87-63-75-121l322-1434c12-51 64-86 121-74l1440 316c52 12 86 64 75 121-12 52-63 87-121 75L938 4465 639 5801c-6 47-52 75-98 75z" fill="#5DD3B6" opacity="1" data-original="#000000" class=""></path></g></svg>