<svg xmlns="http://www.w3.org/2000/svg" version="1.1" xmlns:xlink="http://www.w3.org/1999/xlink" width="512" height="512" x="0" y="0" viewBox="0 0 512 512" style="enable-background:new 0 0 512 512" xml:space="preserve" class=""><g><path d="M22.5 470.157V194.808m0-15v-44.794L256 12.808l233.5 122.206v335.143M424.647 202.308v267.849m-337.294 0V202.308" style="fill-rule: evenodd; clip-rule: evenodd; stroke-miterlimit: 22.9256;" fill-rule="evenodd" clip-rule="evenodd" fill="none" stroke="#5DD3B6" stroke-width="15px" stroke-miterlimit="22.9256" data-original="#000000" opacity="1"></path><path d="M72.353 172.308h367.293v30H72.353zM87.353 232.307h337.294M452 500.157H7.5v-30h497v30H467M87.353 380.157h270v90m-270-180h180v180M177.353 290.157v180M226 104.808h60v30h-60zM366.307 114.031v-15m30 30.001v-15" style="fill-rule: evenodd; clip-rule: evenodd; stroke-miterlimit: 22.9256;" fill-rule="evenodd" clip-rule="evenodd" fill="none" stroke="#5DD3B6" stroke-width="15px" stroke-miterlimit="22.9256" data-original="#000000" opacity="1"></path><path d="M147.353 380.157v30h-30v-30M237.353 380.157v30h-30v-30M326.123 380.157v30h-30v-30M147.353 290.157v30h-30v-30M237.353 290.157v30h-30v-30" style="fill-rule: evenodd; clip-rule: evenodd; stroke-miterlimit: 22.9256;" fill-rule="evenodd" clip-rule="evenodd" fill="none" stroke="#5DD3B6" stroke-width="15px" stroke-miterlimit="22.9256" data-original="#000000" opacity="1"></path></g></svg>