<svg xmlns="http://www.w3.org/2000/svg" version="1.1" xmlns:xlink="http://www.w3.org/1999/xlink" width="512" height="512" x="0" y="0" viewBox="0 0 74 74" style="enable-background:new 0 0 512 512" xml:space="preserve" class=""><g><path d="M71 72H3a1 1 0 0 1-1-1V3a1 1 0 0 1 1-1h68a1 1 0 0 1 1 1v68a1 1 0 0 1-1 1zM4 70h66V4H4z" fill="#5DD3B6" opacity="1" data-original="#000000" class=""></path><path d="M71 61.852H3a1 1 0 0 1-1-1v-47.7a1 1 0 0 1 1-1h68a1 1 0 0 1 1 1v47.7a1 1 0 0 1-1 1zm-67-2h66v-45.7H4z" fill="#5DD3B6" opacity="1" data-original="#000000" class=""></path><path d="M57.982 61.852a1 1 0 0 1-1-1v-47.7a1 1 0 1 1 2 0v47.7a1 1 0 0 1-1 1zM43.99 61.85a1 1 0 0 1-1-1v-7.86a1 1 0 0 1 2 0v7.86a1 1 0 0 1-1 1zM43.99 36.09a1 1 0 0 1-1-1V13.15a1 1 0 1 1 2 0v21.94a1 1 0 0 1-1 1zM30.01 61.85a1 1 0 0 1-1-1V39.17a1 1 0 0 1 2 0v21.68a1 1 0 0 1-1 1zM30.01 22.11a1 1 0 0 1-1-1v-7.96a1 1 0 0 1 2 0v7.96a1 1 0 0 1-1 1zM16.018 61.852a1 1 0 0 1-1-1v-47.7a1 1 0 0 1 2 0v47.7a1 1 0 0 1-1 1z" fill="#5DD3B6" opacity="1" data-original="#000000" class=""></path><path d="M57.982 50.08a1 1 0 0 1-.707-.293l-35.93-35.932a1 1 0 1 1 1.414-1.414l35.93 35.932a1 1 0 0 1-.707 1.707zM51.948 61.852a1 1 0 0 1-.7-.289l-35.931-35.5a1 1 0 0 1 1.407-1.422l35.93 35.5a1 1 0 0 1-.7 1.712zM65.02 9.074h-1.436a1 1 0 0 1 0-2h1.436a1 1 0 0 1 0 2zM10.416 9.074H8.98a1 1 0 0 1 0-2h1.436a1 1 0 0 1 0 2zM65.02 66.811h-1.436a1 1 0 0 1 0-2h1.436a1 1 0 1 1 0 2zM10.416 66.811H8.98a1 1 0 0 1 0-2h1.436a1 1 0 0 1 0 2z" fill="#5DD3B6" opacity="1" data-original="#000000" class=""></path></g></svg>